<svg width="21" height="10" viewBox="0 0 21 10" fill="none" xmlns="http://www.w3.org/2000/svg">
<path d="M10.3555 9.44632C10.1209 9.44673 9.89234 9.37188 9.70349 9.23281L0.800381 2.66307C0.566436 2.49028 0.410763 2.2317 0.367609 1.94422C0.324455 1.65674 0.397354 1.3639 0.57027 1.13013C0.743187 0.896358 1.00196 0.7408 1.28965 0.697678C1.57734 0.654556 1.8704 0.727402 2.10434 0.90019L10.3555 6.98267L18.6066 0.90019C18.8405 0.727402 19.1336 0.654556 19.4213 0.697678C19.709 0.7408 19.9678 0.896358 20.1407 1.13013C20.3136 1.3639 20.3865 1.65674 20.3433 1.94422C20.3002 2.2317 20.1445 2.49028 19.9106 2.66307L11.0075 9.23281C10.8186 9.37188 10.5901 9.44673 10.3555 9.44632Z" fill="white"/>
</svg>
