<svg width="21" height="10" viewBox="0 0 21 10" fill="none" xmlns="http://www.w3.org/2000/svg">
<path d="M19.2597 9.69733C19.0251 9.69774 18.7965 9.62289 18.6077 9.48379L10.3556 3.40063L2.10356 9.48379C1.86959 9.6566 1.57651 9.72945 1.28878 9.68633C1.00105 9.6432 0.742254 9.48762 0.569318 9.25383C0.396382 9.02003 0.323475 8.72716 0.366634 8.43964C0.409793 8.15213 0.565483 7.89352 0.799455 7.72072L9.70356 1.15024C9.89226 1.01065 10.1208 0.935303 10.3556 0.935303C10.5904 0.935303 10.819 1.01065 11.0077 1.15024L19.9118 7.72072C20.0977 7.85763 20.2356 8.04974 20.3057 8.26962C20.3759 8.4895 20.3747 8.72591 20.3024 8.94509C20.2301 9.16427 20.0904 9.35503 19.9031 9.49012C19.7159 9.62521 19.4907 9.69773 19.2597 9.69733Z" fill="white"/>
</svg>
